<?xml version="1.0" standalone="no"?>
<!DOCTYPE svg PUBLIC "-//W3C//DTD SVG 20010904//EN"
 "http://www.w3.org/TR/2001/REC-SVG-20010904/DTD/svg10.dtd">
<svg version="1.0" xmlns="http://www.w3.org/2000/svg"
 width="564.000000pt" height="564.000000pt" viewBox="0 0 564.000000 564.000000"
 preserveAspectRatio="xMidYMid meet">

<g transform="translate(0.000000,564.000000) scale(0.100000,-0.100000)"
fill="#000000" stroke="none">
<path d="M3694 5287 c-114 -56 -396 -216 -734 -417 -348 -207 -1249 -717
-1637 -926 -41 -22 -73 -46 -73 -54 0 -9 54 -105 121 -215 66 -110 129 -217
140 -237 17 -34 19 -60 19 -328 l0 -290 -100 0 c-120 0 -228 -20 -328 -62
-336 -139 -547 -471 -529 -832 15 -314 191 -587 469 -727 256 -129 505 -117
1028 46 344 108 709 168 873 145 38 -6 110 -28 160 -49 168 -72 387 -120 697
-156 177 -20 254 -19 375 4 163 31 232 65 364 180 88 76 123 126 119 171 -2
24 -9 36 -20 38 -11 2 -65 -37 -139 -100 -155 -132 -202 -165 -264 -184 -69
-21 -286 -26 -410 -9 -263 35 -618 110 -788 166 -211 69 -304 66 -642 -21
-132 -34 -280 -75 -328 -91 -49 -16 -89 -29 -91 -29 -1 0 21 24 49 53 64 65
128 160 164 239 l27 60 330 -4 c704 -7 1893 1 1914 12 l21 11 -3 857 c-2 471
-7 863 -11 870 -6 9 -298 12 -1400 12 l-1392 0 60 33 c33 18 107 62 165 98
118 73 181 108 425 234 94 48 260 136 370 195 110 59 299 158 420 220 399 205
985 562 985 599 0 40 -222 453 -273 509 -11 12 -26 22 -32 22 -6 0 -52 -20
-101 -43z m-9 -182 c183 -40 193 -44 200 -75 3 -16 35 -77 71 -137 44 -74 60
-109 51 -111 -8 -2 -56 10 -108 27 -129 41 -326 93 -497 132 -78 18 -139 36
-135 40 5 4 64 42 133 84 81 49 132 74 145 71 11 -2 74 -16 140 -31z m-758
-471 c56 -12 207 -51 334 -85 222 -60 231 -63 209 -78 -13 -9 -88 -51 -168
-94 l-144 -78 -217 54 c-119 30 -279 69 -356 87 -77 18 -146 36 -154 40 -9 5
43 38 150 98 185 103 158 99 346 56z m-920 -509 c92 -14 175 -27 183 -30 8 -2
62 -11 120 -20 124 -18 280 -54 280 -65 0 -4 -78 -51 -174 -103 l-175 -96 -93
19 c-126 25 -300 46 -565 66 -123 10 -223 20 -223 23 1 11 435 229 457 230 12
1 98 -10 190 -24z m573 -760 c0 -3 -22 -27 -49 -53 -52 -50 -308 -325 -352
-379 l-27 -32 -191 -3 c-105 -2 -191 -2 -191 0 0 5 155 187 284 333 75 86 119
128 136 131 40 7 390 9 390 3z m958 -4 c-1 -6 -87 -109 -190 -229 l-188 -220
-187 -4 c-104 -2 -190 -3 -192 -2 -8 6 15 33 308 351 l105 113 174 0 c105 0
172 -4 170 -9z m842 3 c0 -12 -75 -109 -200 -259 -69 -83 -135 -163 -147 -178
l-21 -28 -150 3 -150 3 84 105 c47 58 128 162 181 233 l96 127 154 0 c84 0
153 -3 153 -6z m-2904 -703 c131 -59 136 -236 9 -308 -114 -64 -255 20 -255
152 0 129 127 210 246 156z m1804 -306 c0 -13 -67 -15 -544 -15 -471 0 -545 2
-556 15 -11 13 50 15 544 15 488 0 556 -2 556 -15z m610 0 c0 -13 -28 -15
-195 -15 -167 0 -195 2 -195 15 0 13 28 15 195 15 167 0 195 -2 195 -15z
m-1895 -96 c84 -57 100 -184 32 -258 -28 -30 -94 -61 -132 -61 -46 0 -109 34
-141 76 -25 32 -29 46 -29 100 0 54 4 67 31 101 17 21 46 46 65 56 47 25 126
19 174 -14z m-961 -12 c47 -26 86 -94 86 -146 -1 -111 -107 -196 -214 -171
-148 33 -184 229 -59 315 50 33 131 35 187 2z m1166 -91 c0 -2 3 -11 6 -20 5
-13 -3 -16 -50 -16 -49 0 -56 2 -56 20 0 17 7 20 50 20 28 0 50 -2 50 -4z
m1680 -16 c0 -14 -1616 -14 -1625 0 -4 7 268 10 809 10 537 0 816 -3 816 -10z
m-2390 -100 c22 -12 42 -64 33 -88 -22 -63 -94 -82 -138 -37 -69 68 18 172
105 125z m730 -120 c0 -6 -37 -10 -90 -10 -53 0 -90 4 -90 10 0 6 37 10 90 10
53 0 90 -4 90 -10z m993 -7 c-171 -2 -455 -2 -630 0 -175 1 -34 2 312 2 347 0
490 -1 318 -2z m-1357 -189 c115 -55 135 -208 39 -293 -109 -95 -285 -13 -285
133 0 54 16 89 57 128 52 49 126 62 189 32z m-678 -39 c122 -51 151 -198 56
-287 -83 -77 -213 -59 -270 38 -84 143 62 312 214 249z"/>
</g>
</svg>
